# xmcd
#
# Track frame offsets:
#	150
#	16452
#	44576
#	64984
#	77828
#	97349
#	117564
#	131217
#	149369
#	165872
#	182823
#	202249
#	212480
#	252157
#	278258
#	301961
#
# Disc length: 4041 seconds
#
# Revision: 0
# Processed by: cddbd v1.5.2PL0 Copyright (c) Steve Scherf et al.
# Submitted via: audiograbber 1.83.01
#
DISCID=f00fc710
DTITLE=Chart Buster - CB90231
DYEAR=2007
DGENRE=Bob Dylan
TTITLE0=Bob Dylan - Lay Lady Lay
TTITLE1=Bob Dylan - Like A Rolling Stone
TTITLE2=Bob Dylan - Just Like A Woman
TTITLE3=Bob Dylan - Knockin' On Heaven's Door
TTITLE4=Bob Dylan - Positively 4th Street
TTITLE5=Bob Dylan - Rainy Day Women # 12 and 35
TTITLE6=Bob Dylan - Blowin' In The Wind
TTITLE7=Bob Dylan - Don't Think Twice, It's Alright
TTITLE8=Bob Dylan - Times They Are Changing
TTITLE9=Bob Dylan - It Aint Me Babe
TTITLE10=Bob Dylan - Maggie's Farm
TTITLE11=Bob Dylan - Forever Young
TTITLE12=Bob Dylan - Hurricane
TTITLE13=Bob Dylan - Tangled Up In Blue
TTITLE14=Bob Dylan - Subterranean Homesick Blues
TTITLE15=Blank - Blank
EXTD=
EXTT0=
EXTT1=
EXTT2=
EXTT3=
EXTT4=
EXTT5=
EXTT6=
EXTT7=
EXTT8=
EXTT9=
EXTT10=
EXTT11=
EXTT12=
EXTT13=
EXTT14=
EXTT15=
PLAYORDER=
